<svg width="976" height="688" viewBox="0 0 976 688" fill="none" xmlns="http://www.w3.org/2000/svg">
<path d="M195 116.607L0 505.607H195C195 505.607 268 241.607 349 309.607C430 377.607 339.5 468.107 463.5 309.607C587.5 151.107 376.274 -174.097 195 116.607Z" fill="#0498D8"/>
<path d="M670 116.607L475 505.607H670C670 505.607 743 241.607 824 309.607C905 377.607 814.5 468.107 938.5 309.607C1062.5 151.107 851.274 -174.097 670 116.607Z" fill="#0498D8"/>
<path d="M32.375 656H54.9375L74.25 591.937L93.625 656H116.125L145.875 552.875H123.313L103.813 628.25L81.875 552.875H66.6875L44.6875 628.25L25.1875 552.875H2.6875L32.375 656ZM169.313 578.687C172.438 578.687 175.104 577.562 177.313 575.312C179.521 573.062 180.625 570.375 180.625 567.25C180.625 564.125 179.521 561.458 177.313 559.25C175.104 557.042 172.438 555.937 169.313 555.937C166.146 555.937 163.438 557.042 161.188 559.25C158.979 561.458 157.875 564.125 157.875 567.25C157.875 570.417 158.979 573.125 161.188 575.375C163.438 577.583 166.146 578.687 169.313 578.687ZM159.688 656H178.875V592H159.688V656ZM201.498 656H220.686V618.125C220.686 614.417 221.915 611.312 224.373 608.812C226.831 606.271 230.186 605 234.436 605C238.602 605 241.873 606.292 244.248 608.875C246.665 611.417 247.873 614.979 247.873 619.562V656H267.061V615.5C267.061 610.417 265.998 605.979 263.873 602.187C261.748 598.354 258.811 595.375 255.061 593.25C251.352 591.083 247.04 590 242.123 590C237.706 590 233.644 590.854 229.936 592.562C226.227 594.229 223.144 596.417 220.686 599.125V592H201.498V656ZM288.412 656H307.6V620.25C307.6 617.875 308.287 615.667 309.662 613.625C311.079 611.542 312.891 609.854 315.1 608.562C317.35 607.271 319.725 606.625 322.225 606.625C325.85 606.625 329.266 607.667 332.475 609.75L340.475 593.562C338.808 592.521 336.766 591.667 334.35 591C331.975 590.333 329.662 590 327.412 590C323.454 590 319.745 590.979 316.287 592.937C312.87 594.854 309.975 597.604 307.6 601.187V592H288.412V656ZM376.867 658C381.242 658 385.326 657.104 389.117 655.312C392.951 653.479 396.326 650.896 399.242 647.562V656H418.43V592H399.242V599.812C396.701 596.729 393.471 594.333 389.555 592.625C385.638 590.875 381.409 590 376.867 590C370.701 590 365.221 591.5 360.43 594.5C355.68 597.458 351.951 601.5 349.242 606.625C346.534 611.708 345.18 617.458 345.18 623.875C345.18 630.458 346.596 636.333 349.43 641.5C352.263 646.625 356.055 650.667 360.805 653.625C365.596 656.542 370.951 658 376.867 658ZM382.555 641.687C377.596 641.687 373.492 640.021 370.242 636.687C366.992 633.354 365.367 629.125 365.367 624C365.367 618.875 366.992 614.646 370.242 611.312C373.534 607.979 377.638 606.312 382.555 606.312C387.513 606.312 391.596 607.979 394.805 611.312C398.055 614.604 399.68 618.833 399.68 624C399.68 629.167 398.076 633.417 394.867 636.75C391.659 640.042 387.555 641.687 382.555 641.687ZM462.208 658C464.791 658 467.416 657.667 470.083 657C472.791 656.333 475.229 655.417 477.396 654.25L472.583 638.875C470.791 640.208 468.875 640.875 466.833 640.875C463.083 640.875 461.208 638.417 461.208 633.5V606.562H475.271V592H461.208V568H442.021V592H433.458V606.562H442.021V634.875C442.021 642.167 443.791 647.854 447.333 651.937C450.916 655.979 455.875 658 462.208 658ZM524.729 658C531.479 658 537.604 656.542 543.104 653.625C548.604 650.708 552.854 646.667 555.854 641.5L542.041 634.562C539.666 637.396 537.187 639.458 534.604 640.75C532.062 642.042 529.124 642.687 525.791 642.687C520.458 642.687 516.166 641.208 512.916 638.25C509.666 635.292 508.041 631.375 508.041 626.5H557.104C557.229 625.417 557.291 624.687 557.291 624.312C557.333 623.896 557.354 623.417 557.354 622.875C557.354 616.333 555.937 610.604 553.104 605.687C550.312 600.771 546.395 596.937 541.354 594.187C536.354 591.396 530.52 590 523.854 590C517.187 590 511.166 591.521 505.791 594.562C500.458 597.562 496.208 601.625 493.041 606.75C489.874 611.875 488.291 617.625 488.291 624C488.291 630.458 489.874 636.25 493.041 641.375C496.249 646.5 500.604 650.562 506.104 653.562C511.604 656.521 517.812 658 524.729 658ZM508.729 615.875C509.145 612.167 510.687 609.25 513.354 607.125C516.02 605 519.437 603.937 523.604 603.937C527.562 603.937 530.854 605 533.479 607.125C536.145 609.25 537.812 612.167 538.479 615.875H508.729ZM572.042 656H609.104C619.354 656 627.479 653.437 633.479 648.312C639.479 643.187 642.479 636.104 642.479 627.062C642.479 619.937 640.542 614.187 636.667 609.812C632.834 605.437 627.313 602.667 620.104 601.5C628.938 597.083 633.354 589.521 633.354 578.812C633.354 570.187 630.542 563.708 624.917 559.375C619.334 555.042 611.563 552.875 601.604 552.875H572.042V656ZM592.229 594.625V568.562H596.917C608.209 568.562 613.854 572.854 613.854 581.437C613.854 585.729 612.396 589 609.479 591.25C606.563 593.5 602.375 594.625 596.917 594.625H592.229ZM592.229 640.25V612.062H602.229C608.396 612.062 613.104 613.312 616.354 615.812C619.646 618.312 621.292 621.854 621.292 626.437C621.292 635.646 614.938 640.25 602.229 640.25H592.229ZM689.306 658C696.389 658 702.764 656.563 708.431 653.687C714.097 650.771 718.576 646.771 721.868 641.687C725.201 636.562 726.868 630.667 726.868 624C726.868 617.333 725.201 611.458 721.868 606.375C718.576 601.25 714.097 597.25 708.431 594.375C702.764 591.458 696.389 590 689.306 590C682.264 590 675.889 591.458 670.181 594.375C664.514 597.25 660.014 601.25 656.681 606.375C653.389 611.458 651.743 617.333 651.743 624C651.743 630.667 653.389 636.562 656.681 641.687C660.014 646.771 664.514 650.771 670.181 653.687C675.889 656.563 682.264 658 689.306 658ZM689.306 641.625C686.056 641.625 683.097 640.875 680.431 639.375C677.806 637.875 675.722 635.812 674.181 633.187C672.639 630.521 671.868 627.458 671.868 624C671.868 620.542 672.639 617.5 674.181 614.875C675.722 612.208 677.806 610.125 680.431 608.625C683.097 607.125 686.056 606.375 689.306 606.375C692.597 606.375 695.556 607.125 698.181 608.625C700.847 610.125 702.951 612.208 704.493 614.875C706.077 617.5 706.868 620.542 706.868 624C706.868 627.458 706.077 630.521 704.493 633.187C702.951 635.812 700.847 637.875 698.181 639.375C695.556 640.875 692.597 641.625 689.306 641.625ZM775.731 658C782.815 658 789.19 656.563 794.856 653.687C800.523 650.771 805.002 646.771 808.294 641.687C811.627 636.562 813.294 630.667 813.294 624C813.294 617.333 811.627 611.458 808.294 606.375C805.002 601.25 800.523 597.25 794.856 594.375C789.19 591.458 782.815 590 775.731 590C768.69 590 762.315 591.458 756.606 594.375C750.94 597.25 746.44 601.25 743.106 606.375C739.815 611.458 738.169 617.333 738.169 624C738.169 630.667 739.815 636.562 743.106 641.687C746.44 646.771 750.94 650.771 756.606 653.687C762.315 656.563 768.69 658 775.731 658ZM775.731 641.625C772.481 641.625 769.523 640.875 766.856 639.375C764.231 637.875 762.148 635.812 760.606 633.187C759.065 630.521 758.294 627.458 758.294 624C758.294 620.542 759.065 617.5 760.606 614.875C762.148 612.208 764.231 610.125 766.856 608.625C769.523 607.125 772.481 606.375 775.731 606.375C779.023 606.375 781.981 607.125 784.606 608.625C787.273 610.125 789.377 612.208 790.919 614.875C792.502 617.5 793.294 620.542 793.294 624C793.294 627.458 792.502 630.521 790.919 633.187C789.377 635.812 787.273 637.875 784.606 639.375C781.981 640.875 779.023 641.625 775.731 641.625ZM847.919 658C856.752 658 863.627 656.125 868.544 652.375C873.502 648.583 875.981 643.208 875.981 636.25C875.981 632.458 875.273 629.437 873.856 627.187C872.44 624.896 870.481 623.042 867.981 621.625C865.523 620.208 862.69 618.917 859.481 617.75C857.523 617.042 855.461 616.271 853.294 615.437C851.169 614.562 849.356 613.562 847.856 612.437C846.398 611.312 845.669 610.021 845.669 608.562C845.669 606.979 846.377 605.667 847.794 604.625C849.211 603.583 851.106 603.062 853.481 603.062C857.69 603.062 862.502 604.792 867.919 608.25L874.481 595.937C866.565 592.062 859.523 590.125 853.356 590.125C848.273 590.125 843.773 590.979 839.856 592.687C835.981 594.396 832.94 596.771 830.731 599.812C828.523 602.812 827.419 606.292 827.419 610.25C827.419 613.542 828.148 616.25 829.606 618.375C831.106 620.458 833.044 622.187 835.419 623.562C837.794 624.937 840.273 626.167 842.856 627.25C847.356 629.125 850.669 630.604 852.794 631.687C854.919 632.729 855.981 634.479 855.981 636.937C855.981 639.146 855.231 640.854 853.731 642.062C852.273 643.229 850.336 643.812 847.919 643.812C842.002 643.812 836.294 640.896 830.794 635.062L822.731 647.937C828.481 654.646 836.877 658 847.919 658ZM914.723 658C917.306 658 919.931 657.667 922.598 657C925.306 656.333 927.743 655.417 929.91 654.25L925.098 638.875C923.306 640.208 921.389 640.875 919.348 640.875C915.598 640.875 913.723 638.417 913.723 633.5V606.562H927.785V592H913.723V568H894.535V592H885.973V606.562H894.535V634.875C894.535 642.167 896.306 647.854 899.848 651.937C903.431 655.979 908.389 658 914.723 658Z" fill="#0498D8"/>
</svg>
