<svg width="100" height="100" viewBox="0 0 100 100" fill="none" xmlns="http://www.w3.org/2000/svg">
<path fill-rule="evenodd" clip-rule="evenodd" d="M50 95C74.8528 95 95 74.8528 95 50C95 25.1472 74.8528 5 50 5C25.1472 5 5 25.1472 5 50C5 74.8528 25.1472 95 50 95ZM68.4999 28.5L75.7875 15.0474L65.8986 27L49.8981 46.5L35.4999 27L25.488 16.9751L32.4999 31L39.9999 49.5L23.4999 58.5L9.48755 66.189L25.488 63.0698L44.9999 58.5L46.4999 79L49.8981 94.677L52.9999 79L57.9999 58.5L75.7875 61L90.8737 63.0698L76.9999 57L61.9999 49.5L68.4999 28.5Z" fill="#0498D8"/>
</svg>
