<svg width="75" height="80" viewBox="0 0 75 80" fill="none" xmlns="http://www.w3.org/2000/svg">
<path d="M73.3048 70.8118V75.1496C73.3048 76.8562 71.9164 78.2446 70.2097 78.2446C68.5031 78.2446 67.1147 76.8562 67.1147 75.1496V70.753C66.1962 70.3297 65.5569 69.4004 65.5569 68.3244V23.2403C65.5569 22.6012 66.0749 22.083 66.7141 22.083C67.3534 22.083 67.8714 22.6012 67.8714 23.2403V58.4713H72.6856V12.0952H67.8714V17.8558C67.8714 18.4949 67.3534 19.013 66.7141 19.013C66.0749 19.013 65.5569 18.4949 65.5569 17.8558V10.938C65.5569 10.8397 65.5694 10.7419 65.5941 10.6466L67.8817 1.85285C68.1701 0.744499 69.1333 -5.24701e-06 70.2785 -5.24701e-06C71.4237 -5.24701e-06 72.3867 0.744655 72.6751 1.853L74.9628 10.6466C74.9875 10.7419 75 10.8397 75 10.938V68.3244C75.0005 69.4535 74.2967 70.4211 73.3048 70.8118V70.8118ZM67.8717 68.3244C67.8717 68.5216 68.0322 68.6821 68.2292 68.6821H72.3283C72.5253 68.6821 72.6858 68.5216 72.6858 68.3244V65.5672H67.8716V68.3244H67.8717ZM70.2098 75.9301C70.6402 75.9301 70.9905 75.58 70.9905 75.1496V70.9966H69.4295V75.1496C69.4294 75.58 69.7795 75.9301 70.2098 75.9301V75.9301ZM67.8717 60.7859V63.2525H72.6859V60.7859H67.8717ZM70.4354 2.43565C70.4229 2.3875 70.404 2.31452 70.2787 2.31452C70.1534 2.31452 70.1344 2.3875 70.1219 2.43565L68.2112 9.78071H72.3463L70.4354 2.43565Z" fill="white"/>
<path d="M18.0925 67.8514H36.3894C37.0285 67.8514 37.5467 68.3695 37.5467 69.0086C37.5467 69.6477 37.0285 70.1659 36.3894 70.1659H18.0923C17.4532 70.1659 16.9351 69.6477 16.9351 69.0086C16.9351 68.3695 17.4534 67.8514 18.0925 67.8514V67.8514Z" fill="white"/>
<path d="M18.0923 55.4731H52.5247C53.164 55.4731 53.682 55.9912 53.682 56.6303C53.682 57.2695 53.164 57.7876 52.5247 57.7876H18.0923C17.4532 57.7876 16.9351 57.2695 16.9351 56.6303C16.9351 55.9912 17.4532 55.4731 18.0923 55.4731V55.4731Z" fill="white"/>
<path d="M18.0923 44.1597H52.5247C53.164 44.1597 53.682 44.6779 53.682 45.317C53.682 45.9561 53.164 46.4742 52.5247 46.4742H18.0923C17.4532 46.4742 16.9351 45.9561 16.9351 45.317C16.9351 44.6779 17.4532 44.1597 18.0923 44.1597V44.1597Z" fill="white"/>
<path d="M18.0923 32.8466H52.5247C53.164 32.8466 53.682 33.3648 53.682 34.0039C53.682 34.643 53.164 35.1611 52.5247 35.1611H18.0923C17.4532 35.1611 16.9351 34.643 16.9351 34.0039C16.9351 33.3648 17.4532 32.8466 18.0923 32.8466V32.8466Z" fill="white"/>
<path d="M18.0923 21.5331H52.5247C53.164 21.5331 53.682 22.0513 53.682 22.6904C53.682 23.3295 53.164 23.8477 52.5247 23.8477H18.0923C17.4532 23.8477 16.9351 23.3295 16.9351 22.6904C16.9351 22.0513 17.4532 21.5331 18.0923 21.5331V21.5331Z" fill="white"/>
<path d="M18.0923 10.2199H52.5247C53.164 10.2199 53.682 10.738 53.682 11.3772C53.682 12.0163 53.164 12.5344 52.5247 12.5344H18.0923C17.4532 12.5344 16.9351 12.0163 16.9351 11.3772C16.9351 10.738 17.4532 10.2199 18.0923 10.2199V10.2199Z" fill="white"/>
<path d="M12.1429 12.4572C12.1429 14.5073 10.4751 16.175 8.42518 16.175H7.22888V22.2614H8.42518C10.4752 22.2614 12.1429 23.9292 12.1429 25.9793C12.1429 28.0293 10.4751 29.697 8.42518 29.697H7.22888V35.7834H8.42518C10.4752 35.7834 12.1429 37.4513 12.1429 39.5012C12.1429 41.5511 10.4751 43.2189 8.42518 43.2189H7.22888V49.3054H8.42518C10.4752 49.3054 12.1429 50.9732 12.1429 53.0233C12.1429 55.0733 10.4751 56.741 8.42518 56.741H7.22888V62.8274H8.42518C10.4752 62.8274 12.1429 64.4953 12.1429 66.5452C12.1429 68.5951 10.4751 70.2631 8.42502 70.2631H3.71774C1.66769 70.2631 0 68.5952 0 66.5452C0 64.4951 1.66785 62.8274 3.71774 62.8274H4.91404V56.741H3.71774C1.66769 56.741 0 55.0732 0 53.0233C0 50.9734 1.66785 49.3054 3.71774 49.3054H4.91404V43.2189H3.71774C1.66769 43.2189 0 41.5511 0 39.5012C0 37.4513 1.66785 35.7834 3.71774 35.7834H4.91404V29.697H3.71774C1.66769 29.697 0 28.0292 0 25.9791C0 23.9291 1.66785 22.2614 3.71774 22.2614H4.91404V16.175H3.71774C1.66769 16.175 0 14.5071 0 12.4572C0 10.4073 1.66785 8.73947 3.71774 8.73947H8.42502C10.4751 8.73947 12.1429 10.4072 12.1429 12.4572V12.4572ZM2.31452 66.5452C2.31452 67.319 2.94407 67.9485 3.71774 67.9485H8.42502C9.19884 67.9485 9.82824 67.319 9.82824 66.5452C9.82824 65.7713 9.19869 65.1419 8.42502 65.1419H3.71774C2.94407 65.1419 2.31452 65.7713 2.31452 66.5452V66.5452ZM2.31452 53.0233C2.31452 53.7971 2.94407 54.4265 3.71774 54.4265H8.42502C9.19884 54.4265 9.82824 53.7969 9.82824 53.0233C9.82824 52.2496 9.19869 51.6199 8.42502 51.6199H3.71774C2.94407 51.6199 2.31452 52.2494 2.31452 53.0233V53.0233ZM2.31452 39.5012C2.31452 40.275 2.94407 40.9044 3.71774 40.9044H8.42502C9.19884 40.9044 9.82824 40.2749 9.82824 39.5012C9.82824 38.7275 9.19869 38.098 8.42502 38.098H3.71774C2.94407 38.098 2.31452 38.7274 2.31452 39.5012V39.5012ZM2.31452 25.9793C2.31452 26.7531 2.94407 27.3825 3.71774 27.3825H8.42502C9.19884 27.3825 9.82824 26.7529 9.82824 25.9791C9.82824 25.2053 9.19869 24.5759 8.42502 24.5759H3.71774C2.94407 24.5759 2.31452 25.2055 2.31452 25.9793V25.9793ZM2.31452 12.4572C2.31452 13.231 2.94407 13.8604 3.71774 13.8604H8.42502C9.19884 13.8604 9.82824 13.2309 9.82824 12.4572C9.82824 11.6835 9.19869 11.054 8.42502 11.054H3.71774C2.94407 11.054 2.31452 11.6834 2.31452 12.4572V12.4572Z" fill="white"/>
<path d="M57.633 79.0024H9.74105C7.25448 79.0024 5.14179 77.0635 4.93147 74.5883C4.87731 73.9515 5.34979 73.3914 5.98659 73.3373C6.62463 73.2839 7.18366 73.7554 7.23767 74.3924C7.34707 75.6796 8.44677 76.6879 9.74105 76.6879H57.633C59.0185 76.6879 60.1455 75.5607 60.1455 74.1754V4.82719C60.1455 3.44172 59.0183 2.31455 57.633 2.31455H9.74105C8.44677 2.31455 7.34707 3.32291 7.23767 4.61009C7.18351 5.2469 6.62463 5.71921 5.98659 5.66521C5.34979 5.61105 4.87747 5.05093 4.93147 4.41413C5.14179 1.93898 7.25448 2.28882e-05 9.74105 2.28882e-05H57.633C60.2947 2.28882e-05 62.46 2.16549 62.46 4.82719V74.1754C62.46 76.837 60.2947 79.0024 57.633 79.0024V79.0024Z" fill="white"/>
</svg>
