<svg width="75" height="75" viewBox="0 0 75 75" fill="none" xmlns="http://www.w3.org/2000/svg">
<g clip-path="url(#clip0)">
<path d="M35.2777 41.8298H39.7222C40.3292 41.8298 40.8214 41.3377 40.8214 40.7307C40.8214 40.1236 40.3292 39.6315 39.7222 39.6315H35.2777C34.6706 39.6315 34.1785 40.1236 34.1785 40.7307C34.1785 41.3377 34.6705 41.8298 35.2777 41.8298Z" fill="white"/>
<path d="M32.4797 13.7829C32.0182 13.3888 31.3242 13.4434 30.93 13.9049L19.5148 27.2698C19.1206 27.7315 19.1752 28.4253 19.6368 28.8195C19.8438 28.9964 20.0977 29.0829 20.3502 29.0829C20.6606 29.0829 20.9691 28.952 21.1866 28.6976L32.6018 15.3327C32.9959 14.871 32.9412 14.1772 32.4797 13.7829V13.7829Z" fill="white"/>
<path d="M19.6203 21.7667C19.8298 21.9528 20.0905 22.0444 20.3502 22.0444C20.6533 22.0444 20.955 21.9198 21.1721 21.6755L24.2576 18.2043C24.6609 17.7506 24.62 17.0559 24.1663 16.6525C23.7124 16.2492 23.0177 16.2901 22.6145 16.7438L19.529 20.2151C19.1258 20.6687 19.1667 21.3634 19.6203 21.7667Z" fill="white"/>
<path d="M64.7211 61.3696C64.4218 60.4258 63.5557 59.7916 62.5655 59.7916H25.3784C24.7713 59.7916 24.2792 60.2838 24.2792 60.8908C24.2792 61.4979 24.7713 61.99 25.3784 61.99H62.5657C62.5932 61.99 62.6174 62.0077 62.6256 62.0338L66.0124 72.7198C66.0158 72.7304 66.022 72.7502 66.0032 72.776C65.9844 72.8016 65.9636 72.8016 65.9525 72.8016H9.04719C9.03605 72.8016 9.01539 72.8016 8.99648 72.776C8.97772 72.7502 8.98388 72.7304 8.98725 72.7198L12.3741 62.0338C12.3824 62.0076 12.4065 61.99 12.434 61.99H20.4166C21.0237 61.99 21.5158 61.4979 21.5158 60.8908C21.5158 60.2838 21.0237 59.7916 20.4166 59.7916H12.4342C11.444 59.7916 10.5777 60.4258 10.2786 61.3696L6.89176 72.0556C6.67148 72.7505 6.7921 73.4863 7.22268 74.0745C7.65327 74.6626 8.31836 75 9.04719 75H65.9523C66.6813 75 67.3463 74.6626 67.7769 74.0745C68.2074 73.4863 68.3281 72.7505 68.1078 72.0556L64.7211 61.3696Z" fill="white"/>
<path d="M66.5144 0H8.48533C6.06154 0 4.0896 1.97194 4.0896 4.39573V41.6238C4.0896 44.0476 6.06154 46.0195 8.48533 46.0195H30.0686C29.9931 48.2279 29.7762 51.892 29.3029 53.9464H24.5717C23.9647 53.9464 23.4726 54.4386 23.4726 55.0456C23.4726 55.6527 23.9647 56.1448 24.5717 56.1448H50.4283C51.0354 56.1448 51.5275 55.6527 51.5275 55.0456C51.5275 54.4386 51.0354 53.9464 50.4283 53.9464H45.6971C45.2239 51.892 45.007 48.2279 44.9315 46.0195H66.5147C68.9385 46.0195 70.9105 44.0476 70.9105 41.6238V4.39573C70.9102 1.97194 68.9382 0 66.5144 0V0ZM31.5473 53.9464C32.0323 51.4617 32.2077 47.8206 32.2675 46.0195H42.7321C42.7919 47.8206 42.9673 51.4617 43.4523 53.9464H31.5473ZM68.7118 41.6238C68.7118 42.8354 67.726 43.8211 66.5144 43.8211H8.48533C7.27373 43.8211 6.28798 42.8354 6.28798 41.6238V37.6402H68.7119V41.6238H68.7118ZM68.7118 35.4418H65.8243V19.2169C65.8243 18.6099 65.3322 18.1177 64.7251 18.1177C64.1181 18.1177 63.6259 18.6099 63.6259 19.2169V35.4418H11.3739V7.45133C11.3739 7.29114 11.5041 7.16085 11.6643 7.16085H63.3354C63.4956 7.16085 63.6259 7.29114 63.6259 7.45133V14.1875C63.6259 14.7945 64.1181 15.2866 64.7251 15.2866C65.3322 15.2866 65.8243 14.7945 65.8243 14.1875V7.45133C65.8243 6.07895 64.7078 4.96247 63.3354 4.96247H11.6643C10.292 4.96247 9.17547 6.07895 9.17547 7.45133V35.4418H6.28798V4.39573C6.28798 3.18413 7.27373 2.19838 8.48533 2.19838H66.5144C67.726 2.19838 68.7118 3.18413 68.7118 4.39573V35.4418Z" fill="white"/>
<path d="M20.4169 64.3296H18.9254C18.3183 64.3296 17.8262 64.8217 17.8262 65.4288C17.8262 66.0358 18.3183 66.528 18.9254 66.528H20.4169C21.0239 66.528 21.5161 66.0358 21.5161 65.4288C21.5161 64.8217 21.0239 64.3296 20.4169 64.3296Z" fill="white"/>
<path d="M24.8914 66.528H26.383C26.99 66.528 27.4821 66.0358 27.4821 65.4288C27.4821 64.8217 26.99 64.3296 26.383 64.3296H24.8914C24.2844 64.3296 23.7922 64.8217 23.7922 65.4288C23.7922 66.0358 24.2844 66.528 24.8914 66.528Z" fill="white"/>
<path d="M30.8575 66.528H32.349C32.9561 66.528 33.4482 66.0358 33.4482 65.4288C33.4482 64.8217 32.9561 64.3296 32.349 64.3296H30.8575C30.2504 64.3296 29.7583 64.8217 29.7583 65.4288C29.7583 66.0358 30.2504 66.528 30.8575 66.528Z" fill="white"/>
<path d="M36.8238 66.528H38.3153C38.9224 66.528 39.4145 66.0358 39.4145 65.4288C39.4145 64.8217 38.9224 64.3296 38.3153 64.3296H36.8238C36.2168 64.3296 35.7246 64.8217 35.7246 65.4288C35.7246 66.0358 36.2168 66.528 36.8238 66.528V66.528Z" fill="white"/>
<path d="M42.7899 66.528H44.2814C44.8884 66.528 45.3806 66.0358 45.3806 65.4288C45.3806 64.8217 44.8884 64.3296 44.2814 64.3296H42.7899C42.1828 64.3296 41.6907 64.8217 41.6907 65.4288C41.6907 66.0358 42.1828 66.528 42.7899 66.528Z" fill="white"/>
<path d="M48.7562 66.528H50.2477C50.8547 66.528 51.3469 66.0358 51.3469 65.4288C51.3469 64.8217 50.8547 64.3296 50.2477 64.3296H48.7562C48.1491 64.3296 47.657 64.8217 47.657 65.4288C47.657 66.0358 48.1491 66.528 48.7562 66.528Z" fill="white"/>
<path d="M54.5833 66.528H56.0748C56.6819 66.528 57.174 66.0358 57.174 65.4288C57.174 64.8217 56.6819 64.3296 56.0748 64.3296H54.5833C53.9763 64.3296 53.4841 64.8217 53.4841 65.4288C53.4841 66.0358 53.9763 66.528 54.5833 66.528Z" fill="white"/>
<path d="M20.4169 68.2637H18.9254C18.3183 68.2637 17.8262 68.7558 17.8262 69.3629C17.8262 69.9699 18.3183 70.4621 18.9254 70.4621H20.4169C21.0239 70.4621 21.5161 69.9699 21.5161 69.3629C21.5161 68.7558 21.0239 68.2637 20.4169 68.2637Z" fill="white"/>
<path d="M24.8914 70.4621H26.383C26.99 70.4621 27.4821 69.9699 27.4821 69.3629C27.4821 68.7558 26.99 68.2637 26.383 68.2637H24.8914C24.2844 68.2637 23.7922 68.7558 23.7922 69.3629C23.7922 69.9699 24.2844 70.4621 24.8914 70.4621Z" fill="white"/>
<path d="M30.8575 70.4621H32.349C32.9561 70.4621 33.4482 69.9699 33.4482 69.3629C33.4482 68.7558 32.9561 68.2637 32.349 68.2637H30.8575C30.2504 68.2637 29.7583 68.7558 29.7583 69.3629C29.7583 69.9699 30.2504 70.4621 30.8575 70.4621Z" fill="white"/>
<path d="M36.8238 70.4621H38.3153C38.9224 70.4621 39.4145 69.9699 39.4145 69.3629C39.4145 68.7558 38.9224 68.2637 38.3153 68.2637H36.8238C36.2168 68.2637 35.7246 68.7558 35.7246 69.3629C35.7246 69.9699 36.2168 70.4621 36.8238 70.4621V70.4621Z" fill="white"/>
<path d="M42.7899 70.4621H44.2814C44.8884 70.4621 45.3806 69.9699 45.3806 69.3629C45.3806 68.7558 44.8884 68.2637 44.2814 68.2637H42.7899C42.1828 68.2637 41.6907 68.7558 41.6907 69.3629C41.6907 69.9699 42.1828 70.4621 42.7899 70.4621Z" fill="white"/>
<path d="M48.7562 70.4621H50.2477C50.8547 70.4621 51.3469 69.9699 51.3469 69.3629C51.3469 68.7558 50.8547 68.2637 50.2477 68.2637H48.7562C48.1491 68.2637 47.657 68.7558 47.657 69.3629C47.657 69.9699 48.1491 70.4621 48.7562 70.4621Z" fill="white"/>
<path d="M54.5833 70.4621H56.0748C56.6819 70.4621 57.174 69.9699 57.174 69.3629C57.174 68.7558 56.6819 68.2637 56.0748 68.2637H54.5833C53.9763 68.2637 53.4841 68.7558 53.4841 69.3629C53.4841 69.9699 53.9763 70.4621 54.5833 70.4621Z" fill="white"/>
</g>
<defs>
<clipPath id="clip0">
<rect width="75" height="75" fill="white"/>
</clipPath>
</defs>
</svg>
