<svg width="81" height="87" viewBox="0 0 81 87" fill="none" xmlns="http://www.w3.org/2000/svg">
<path d="M79.9821 2.79268C80.5843 2.19047 80.5843 1.2141 79.9821 0.611891C79.3799 0.00968558 78.4033 0.00968558 77.8013 0.611891L77.2353 1.1779L76.509 0.451654C75.907 -0.150551 74.9305 -0.150551 74.3282 0.451654C73.726 1.05386 73.726 2.03023 74.3282 2.63261L75.0545 3.35886L64.8248 13.5887L61.0955 11.8936C60.5105 11.6276 59.8213 11.7525 59.3669 12.2071L49.9843 21.5897L49.9258 21.5312C49.3236 20.929 48.3471 20.929 47.7451 21.5312L19.5578 49.7181C19.2684 50.0072 19.106 50.3995 19.106 50.8085V53.9671L14.6596 62.4992L11.271 63.6287C10.9796 63.7257 10.724 63.9075 10.5368 64.151L0.320363 77.4189C0.0540939 77.7647 -0.0532969 78.207 0.0250373 78.6364C0.103372 79.0658 0.359785 79.4418 0.730895 79.6712L12.2076 86.7696C12.454 86.922 12.7352 87.0002 13.019 87.0002C13.1714 87.0002 13.3244 86.9776 13.473 86.9317C13.8985 86.8007 14.2464 86.4921 14.4275 86.0856L25.6021 61.0047L27.5596 61.9137C28.431 62.3182 29.1166 63.0287 29.4898 63.9142L32.7674 71.6901C32.9266 72.0677 33.2294 72.3664 33.609 72.5202C33.7949 72.5955 33.9917 72.6334 34.1885 72.6334C34.3937 72.6334 34.5987 72.5924 34.7914 72.5107L40.6425 70.0261C41.3607 69.7211 41.738 68.9275 41.5208 68.1778L38.2476 56.87L44.0102 51.1074C46.7921 52.8632 49.8314 54.1983 53.0261 55.0466C55.7853 55.7794 58.6279 56.146 61.4712 56.146C64.1643 56.146 66.8583 55.817 69.481 55.1584C70.264 54.9618 70.7629 54.1949 70.6251 53.3995L68.9951 43.9882C68.9203 43.5564 68.6652 43.177 68.2941 42.9445C67.9225 42.7119 67.4698 42.6485 67.0491 42.7695C60.2768 44.7187 52.9992 42.9802 47.8506 38.2375L48.3259 35.9986L55.2694 29.0549C55.5588 28.7658 55.7212 28.3735 55.7212 27.9645C55.7212 27.7081 55.6573 27.4585 55.5384 27.2364L66.2501 16.5246L79.9821 2.79268ZM12.3291 83.2179L3.80666 77.9469L12.6933 66.4059L16.2268 65.2282C16.6064 65.1017 16.9218 64.8326 17.1067 64.4778L21.0443 56.922L23.1202 58.998L12.3291 83.2179ZM25.6126 57.1286L22.1901 53.7064V51.4474L41.5685 32.0691L45.2295 35.7301L44.7498 37.9911L25.6126 57.1286ZM37.6777 53.0782L36.513 54.243L34.6863 52.4163L35.8512 51.2515L37.6777 53.0782ZM35.0092 69.0676L32.3322 62.7164C31.6607 61.123 30.4269 59.8445 28.8587 59.1162L28.2633 58.8396L32.5056 54.5973L35.1422 57.2338L38.1781 67.7218L35.0092 69.0676ZM39.8586 50.8974L38.0319 49.0707L39.46 47.6427C40.1008 48.2254 40.7617 48.7831 41.4443 49.3115L39.8586 50.8974ZM66.2387 46.1467L67.3359 52.4816C62.8702 53.3761 58.2262 53.2364 53.8177 52.0658C49.298 50.8655 45.1177 48.5946 41.6404 45.4624L46.1998 40.9031C51.6805 45.6995 59.1115 47.6408 66.2387 46.1467ZM46.9121 33.0506L43.7497 29.8882L48.7316 24.9062C48.7501 24.9268 48.7675 24.9477 48.787 24.9676L51.891 28.0715L46.9121 33.0506ZM53.404 25.0089L52.1651 23.77L60.7919 15.1433L62.4952 15.9175L53.404 25.0089Z" fill="white"/>
<path d="M31.6188 46.4635C31.0168 45.8613 30.0402 45.8613 29.438 46.4635L26.4595 49.4421C25.8573 50.0443 25.8573 51.0207 26.4595 51.6229C26.7607 51.9241 27.1553 52.0747 27.5499 52.0747C27.9444 52.0747 28.3391 51.9241 28.6403 51.6229L31.6188 48.6443C32.221 48.0421 32.221 47.0659 31.6188 46.4635Z" fill="white"/>
</svg>
