<svg width="87" height="87" viewBox="0 0 87 87" fill="none" xmlns="http://www.w3.org/2000/svg">
<g clip-path="url(#clip0)">
<path d="M83.265 2.79268C83.8672 2.19047 83.8672 1.2141 83.265 0.611891C82.6628 0.00968561 81.6863 0.00968561 81.0842 0.611891L80.5182 1.1779L79.792 0.451654C79.19 -0.150551 78.2134 -0.150551 77.6112 0.451654C77.009 1.05386 77.009 2.03023 77.6112 2.63261L78.3375 3.35886L68.1078 13.5887L64.3785 11.8936C63.7934 11.6276 63.1042 11.7525 62.6499 12.2071L53.2673 21.5897L53.2088 21.5312C52.6066 20.929 51.6301 20.929 51.028 21.5312L22.8408 49.7181C22.5514 50.0072 22.3889 50.3995 22.3889 50.8085V53.9671L17.9426 62.4992L14.554 63.6287C14.2626 63.7257 14.007 63.9075 13.8197 64.151L3.60332 77.4189C3.33705 77.7647 3.22966 78.207 3.308 78.6364C3.38633 79.0658 3.64274 79.4418 4.01385 79.6712L15.4906 86.7696C15.737 86.922 16.0182 87.0002 16.302 87.0002C16.4544 87.0002 16.6073 86.9776 16.756 86.9317C17.1815 86.8007 17.5293 86.4921 17.7105 86.0856L28.8851 61.0047L30.8426 61.9137C31.7139 62.3182 32.3996 63.0287 32.7727 63.9141L36.0504 71.6901C36.2096 72.0677 36.5124 72.3664 36.892 72.5202C37.0779 72.5955 37.2747 72.6334 37.4714 72.6334C37.6767 72.6334 37.8816 72.5924 38.0743 72.5107L43.9254 70.0261C44.6437 69.7211 45.0209 68.9275 44.8038 68.1778L41.5305 56.87L47.2931 51.1074C50.0751 52.8632 53.1143 54.1983 56.309 55.0466C59.0682 55.7794 61.9109 56.146 64.7542 56.146C67.4473 56.146 70.1412 55.817 72.764 55.1584C73.547 54.9618 74.0459 54.1949 73.9081 53.3995L72.278 43.9882C72.2033 43.5564 71.9482 43.177 71.5771 42.9445C71.2055 42.7119 70.7528 42.6485 70.3321 42.7695C63.5598 44.7187 56.2822 42.9802 51.1335 38.2375L51.6088 35.9986L58.5524 29.0549C58.8417 28.7658 59.0042 28.3735 59.0042 27.9645C59.0042 27.7081 58.9403 27.4585 58.8213 27.2364L69.5331 16.5246L83.265 2.79268ZM15.6121 83.2179L7.08962 77.9469L15.9762 66.4059L19.5098 65.2282C19.8894 65.1017 20.2048 64.8326 20.3896 64.4778L24.3272 56.922L26.4032 58.9979L15.6121 83.2179ZM28.8956 57.1286L25.473 53.7064V51.4474H25.4732L44.8515 32.0691L48.5125 35.7301L48.0328 37.9911L28.8956 57.1286ZM40.9606 53.0782L39.796 54.243L37.9693 52.4163L39.1341 51.2515L40.9606 53.0782ZM38.2922 69.0676L35.6152 62.7164C34.9437 61.123 33.7099 59.8445 32.1416 59.1162L31.5462 58.8396L35.7885 54.5973L38.4252 57.2338L41.461 67.7218L38.2922 69.0676ZM43.1416 50.8974L41.3149 49.0707L42.7429 47.6427C43.3837 48.2254 44.0447 48.7831 44.7273 49.3115L43.1416 50.8974ZM69.5217 46.1467L70.6189 52.4816C66.1532 53.3761 61.5092 53.2364 57.1007 52.0658C52.5809 50.8655 48.4007 48.5946 44.9234 45.4624L49.4827 40.9031C54.9634 45.6995 62.3945 47.6408 69.5217 46.1467ZM50.1951 33.0506L47.0326 29.8882L52.0146 24.9062C52.0331 24.9268 52.0504 24.9477 52.07 24.9676L55.174 28.0715L50.1951 33.0506ZM56.6869 25.0089L55.448 23.77L64.0748 15.1433L65.7781 15.9175L56.6869 25.0089Z" fill="white"/>
<path d="M34.9018 46.4635C34.2998 45.8613 33.3232 45.8613 32.721 46.4635L29.7424 49.4421C29.1402 50.0443 29.1402 51.0207 29.7424 51.6229C30.0437 51.9241 30.4383 52.0747 30.8328 52.0747C31.2274 52.0747 31.6221 51.9241 31.9232 51.6229L34.9018 48.6443C35.504 48.0421 35.504 47.0659 34.9018 46.4635Z" fill="white"/>
</g>
<defs>
<clipPath id="clip0">
<rect width="87" height="87" fill="white"/>
</clipPath>
</defs>
</svg>
